#Comment line ignore any data following # character 
#Hierarchical Translation and Rotation (.htr) file 
[Header]	
#Header keywords are followed by a single value 
FileType HTR		#Single word string
DataType HTRS		#Translation followed by rotation and scale data
FileVersion 1		#integer
NumSegments 84		#integer
NumFrames 2		#integer
DataFrameRate 30		#integer, data frame rate in this file
EulerRotationOrder ZYX
CalibrationUnits mm
RotationUnits Degrees
GlobalAxisofGravity Y
BoneLengthAxis Y
ScaleFactor 1.00
[SegmentNames&Hierarchy]
#CHILD	PARENT
MASTER GLOBAL
root MASTER
chest root
L_mid_tent01 root
R_mid_tent01 root
spine01 root
Bip01_Neck chest
L_humerus chest
R_humerus chest
weapon_bone chest
Bip01_Head Bip01_Neck
eye_left_bone Bip01_Head
eye_right_bone Bip01_Head
L_forearm L_humerus
L_front_hand L_forearm
L_weapon_bone L_forearm
L_front_hand01_01 L_front_hand
L_front_hand02_01 L_front_hand
L_front_hand03_01 L_front_hand
L_front_hand01_02 L_front_hand01_01
L_front_hand02_02 L_front_hand02_01
L_front_hand03_02 L_front_hand03_01
R_forearm R_humerus
R_front_hand R_forearm
R_weapon_bone R_forearm
R_front_hand01_01 R_front_hand
R_front_hand02_01 R_front_hand
R_front_hand03_01 R_front_hand
R_front_hand01_02 R_front_hand01_01
R_front_hand02_02 R_front_hand02_01
R_front_hand03_02 R_front_hand03_01
null_rope01_connect L_mid_tent01
Rope1_Seg01 null_rope01_connect
Rope1_Seg02 Rope1_Seg01
Rope1_Seg03 Rope1_Seg02
Rope1_Seg04 Rope1_Seg03
Rope1_Seg05 Rope1_Seg04
Rope1_Seg06 Rope1_Seg05
Rope1_Seg07 Rope1_Seg06
Rope1_Seg09 Rope1_Seg07
L_mid_hand01 Rope1_Seg09
L_mid_hand02 Rope1_Seg09
L_mid_hand03 Rope1_Seg09
null_rope02_connect R_mid_tent01
Rope2_Seg01 null_rope02_connect
Rope2_Seg02 Rope2_Seg01
Rope2_Seg03 Rope2_Seg02
Rope2_Seg04 Rope2_Seg03
Rope2_Seg05 Rope2_Seg04
Rope2_Seg06 Rope2_Seg05
Rope2_Seg07 Rope2_Seg06
Rope2_Seg09 Rope2_Seg07
R_mid_hand01 Rope2_Seg09
R_mid_hand02 Rope2_Seg09
R_mid_hand03 Rope2_Seg09
spine02 spine01
spine03 spine02
pelvis spine03
null_rope03_connect pelvis
null_rope04_connect pelvis
Rope3_Seg01 null_rope03_connect
Rope3_Seg02 Rope3_Seg01
Rope3_Seg03 Rope3_Seg02
Rope3_Seg04 Rope3_Seg03
Rope3_Seg05 Rope3_Seg04
Rope3_Seg06 Rope3_Seg05
Rope3_Seg07 Rope3_Seg06
Rope3_Seg08 Rope3_Seg07
Rope3_Seg09 Rope3_Seg08
R_rear_hand01 Rope3_Seg09
R_rear_hand02 Rope3_Seg09
R_rear_hand03 Rope3_Seg09
Rope4_Seg01 null_rope04_connect
Rope4_Seg02 Rope4_Seg01
Rope4_Seg03 Rope4_Seg02
Rope4_Seg04 Rope4_Seg03
Rope4_Seg05 Rope4_Seg04
Rope4_Seg06 Rope4_Seg05
Rope4_Seg07 Rope4_Seg06
Rope4_Seg08 Rope4_Seg07
Rope4_Seg09 Rope4_Seg08
L_rear_hand01 Rope4_Seg09
L_rear_hand02 Rope4_Seg09
L_rear_hand03 Rope4_Seg09
[BasePosition]
#SegmentName Tx, Ty, Tz, Rx, Ry, Rz, BoneLength
MASTER 0.000000 0.000000 0.000000 -90.000000 0.000000 0.000000 10.000000 
root 0.000000 0.000000 0.000000 0.000000 0.000000 0.000000 10.000000 
chest 0.000000 0.000000 0.000000 0.000000 0.000000 0.000000 10.000000 
L_mid_tent01 0.000000 0.000000 0.000000 0.000000 0.000000 0.000000 10.000000 
R_mid_tent01 0.000000 0.000000 0.000000 0.000000 0.000000 0.000000 10.000000 
spine01 0.000000 0.000000 0.000000 0.000000 0.000000 0.000000 10.000000 
Bip01_Neck 0.000000 0.000000 0.000000 0.000000 0.000000 0.000000 10.000000 
L_humerus 0.000000 0.000000 0.000000 0.000000 0.000000 0.000000 10.000000 
R_humerus 0.000000 0.000000 0.000000 0.000000 0.000000 0.000000 10.000000 
weapon_bone 0.000000 0.000000 0.000000 0.000000 0.000000 0.000000 10.000000 
Bip01_Head 0.000000 0.000000 0.000000 0.000000 0.000000 0.000000 10.000000 
eye_left_bone 0.000000 0.000000 0.000000 0.000000 0.000000 0.000000 10.000000 
eye_right_bone 0.000000 0.000000 0.000000 0.000000 0.000000 0.000000 10.000000 
L_forearm 0.000000 0.000000 0.000000 0.000000 0.000000 0.000000 10.000000 
L_front_hand 0.000000 0.000000 0.000000 0.000000 0.000000 0.000000 10.000000 
L_weapon_bone 0.000000 0.000000 0.000000 0.000000 0.000000 0.000000 10.000000 
L_front_hand01_01 0.000000 0.000000 0.000000 0.000000 0.000000 0.000000 10.000000 
L_front_hand02_01 0.000000 0.000000 0.000000 0.000000 0.000000 0.000000 10.000000 
L_front_hand03_01 0.000000 0.000000 0.000000 0.000000 0.000000 0.000000 10.000000 
L_front_hand01_02 0.000000 0.000000 0.000000 0.000000 0.000000 0.000000 10.000000 
L_front_hand02_02 0.000000 0.000000 0.000000 0.000000 0.000000 0.000000 10.000000 
L_front_hand03_02 0.000000 0.000000 0.000000 0.000000 0.000000 0.000000 10.000000 
R_forearm 0.000000 0.000000 0.000000 0.000000 0.000000 0.000000 10.000000 
R_front_hand 0.000000 0.000000 0.000000 0.000000 0.000000 0.000000 10.000000 
R_weapon_bone 0.000000 0.000000 0.000000 0.000000 0.000000 0.000000 10.000000 
R_front_hand01_01 0.000000 0.000000 0.000000 0.000000 0.000000 0.000000 10.000000 
R_front_hand02_01 0.000000 0.000000 0.000000 0.000000 0.000000 0.000000 10.000000 
R_front_hand03_01 0.000000 0.000000 0.000000 0.000000 0.000000 0.000000 10.000000 
R_front_hand01_02 0.000000 0.000000 0.000000 0.000000 0.000000 0.000000 10.000000 
R_front_hand02_02 0.000000 0.000000 0.000000 0.000000 0.000000 0.000000 10.000000 
R_front_hand03_02 0.000000 0.000000 0.000000 0.000000 0.000000 0.000000 10.000000 
null_rope01_connect 0.000000 0.000000 0.000000 0.000000 0.000000 0.000000 10.000000 
Rope1_Seg01 0.000000 0.000000 0.000000 0.000000 0.000000 0.000000 10.000000 
Rope1_Seg02 0.000000 0.000000 0.000000 0.000000 0.000000 0.000000 10.000000 
Rope1_Seg03 0.000000 0.000000 0.000000 0.000000 0.000000 0.000000 10.000000 
Rope1_Seg04 0.000000 0.000000 0.000000 0.000000 0.000000 0.000000 10.000000 
Rope1_Seg05 0.000000 0.000000 0.000000 0.000000 0.000000 0.000000 10.000000 
Rope1_Seg06 0.000000 0.000000 0.000000 0.000000 0.000000 0.000000 10.000000 
Rope1_Seg07 0.000000 0.000000 0.000000 0.000000 0.000000 0.000000 10.000000 
Rope1_Seg09 0.000000 0.000000 0.000000 0.000000 0.000000 0.000000 10.000000 
L_mid_hand01 0.000000 0.000000 0.000000 0.000000 0.000000 0.000000 10.000000 
L_mid_hand02 0.000000 0.000000 0.000000 0.000000 0.000000 0.000000 10.000000 
L_mid_hand03 0.000000 0.000000 0.000000 0.000000 0.000000 0.000000 10.000000 
null_rope02_connect 0.000000 0.000000 0.000000 0.000000 0.000000 0.000000 10.000000 
Rope2_Seg01 0.000000 0.000000 0.000000 0.000000 0.000000 0.000000 10.000000 
Rope2_Seg02 0.000000 0.000000 0.000000 0.000000 0.000000 0.000000 10.000000 
Rope2_Seg03 0.000000 0.000000 0.000000 0.000000 0.000000 0.000000 10.000000 
Rope2_Seg04 0.000000 0.000000 0.000000 0.000000 0.000000 0.000000 10.000000 
Rope2_Seg05 0.000000 0.000000 0.000000 0.000000 0.000000 0.000000 10.000000 
Rope2_Seg06 0.000000 0.000000 0.000000 0.000000 0.000000 0.000000 10.000000 
Rope2_Seg07 0.000000 0.000000 0.000000 0.000000 0.000000 0.000000 10.000000 
Rope2_Seg09 0.000000 0.000000 0.000000 0.000000 0.000000 0.000000 10.000000 
R_mid_hand01 0.000000 0.000000 0.000000 0.000000 0.000000 0.000000 10.000000 
R_mid_hand02 0.000000 0.000000 0.000000 0.000000 0.000000 0.000000 10.000000 
R_mid_hand03 0.000000 0.000000 0.000000 0.000000 0.000000 0.000000 10.000000 
spine02 0.000000 0.000000 0.000000 0.000000 0.000000 0.000000 10.000000 
spine03 0.000000 0.000000 0.000000 0.000000 0.000000 0.000000 10.000000 
pelvis 0.000000 0.000000 0.000000 0.000000 0.000000 0.000000 10.000000 
null_rope03_connect 0.000000 0.000000 0.000000 0.000000 0.000000 0.000000 10.000000 
null_rope04_connect 0.000000 0.000000 0.000000 0.000000 0.000000 0.000000 10.000000 
Rope3_Seg01 0.000000 0.000000 0.000000 0.000000 0.000000 0.000000 10.000000 
Rope3_Seg02 0.000000 0.000000 0.000000 0.000000 0.000000 0.000000 10.000000 
Rope3_Seg03 0.000000 0.000000 0.000000 0.000000 0.000000 0.000000 10.000000 
Rope3_Seg04 0.000000 0.000000 0.000000 0.000000 0.000000 0.000000 10.000000 
Rope3_Seg05 0.000000 0.000000 0.000000 0.000000 0.000000 0.000000 10.000000 
Rope3_Seg06 0.000000 0.000000 0.000000 0.000000 0.000000 0.000000 10.000000 
Rope3_Seg07 0.000000 0.000000 0.000000 0.000000 0.000000 0.000000 10.000000 
Rope3_Seg08 0.000000 0.000000 0.000000 0.000000 0.000000 0.000000 10.000000 
Rope3_Seg09 0.000000 0.000000 0.000000 0.000000 0.000000 0.000000 10.000000 
R_rear_hand01 0.000000 0.000000 0.000000 0.000000 0.000000 0.000000 10.000000 
R_rear_hand02 0.000000 0.000000 0.000000 0.000000 0.000000 0.000000 10.000000 
R_rear_hand03 0.000000 0.000000 0.000000 0.000000 0.000000 0.000000 10.000000 
Rope4_Seg01 0.000000 0.000000 0.000000 0.000000 0.000000 0.000000 10.000000 
Rope4_Seg02 0.000000 0.000000 0.000000 0.000000 0.000000 0.000000 10.000000 
Rope4_Seg03 0.000000 0.000000 0.000000 0.000000 0.000000 0.000000 10.000000 
Rope4_Seg04 0.000000 0.000000 0.000000 0.000000 0.000000 0.000000 10.000000 
Rope4_Seg05 0.000000 0.000000 0.000000 0.000000 0.000000 0.000000 10.000000 
Rope4_Seg06 0.000000 0.000000 0.000000 0.000000 0.000000 0.000000 10.000000 
Rope4_Seg07 0.000000 0.000000 0.000000 0.000000 0.000000 0.000000 10.000000 
Rope4_Seg08 0.000000 0.000000 0.000000 0.000000 0.000000 0.000000 10.000000 
Rope4_Seg09 0.000000 0.000000 0.000000 0.000000 0.000000 0.000000 10.000000 
L_rear_hand01 0.000000 0.000000 0.000000 0.000000 0.000000 0.000000 10.000000 
L_rear_hand02 0.000000 0.000000 0.000000 0.000000 0.000000 0.000000 10.000000 
L_rear_hand03 0.000000 0.000000 0.000000 0.000000 0.000000 0.000000 10.000000 
#Beginning of Data. Separated by tabs
#Fr	Tx	Ty	Tz	Rx	Ry	Rz	SF
[MASTER]
39 6720.338867 9606.947266 -88.154671 0.001660 0.001660 0.001660 11724.510742
40 6863.883301 9851.344727 -46.281677 0.001660 0.001660 0.001660 12006.833008
[root]
39 -16.500244 -1.919166 1456.246826 -91.707199 -14.096211 -89.547920 1456.341553
40 -16.500244 6.257779 1450.497559 -91.723625 -12.273935 -89.493530 1450.604858
[chest]
39 -84.512650 -34.090519 0.000000 -4.358306 4.576527 166.624329 91.129311
40 -84.512650 -34.090519 0.000000 -3.216891 2.253595 167.474670 91.129311
[L_mid_tent01]
39 27.297449 22.178970 -249.919403 -19.264648 17.236649 22.163826 252.382187
40 27.297405 22.178963 -249.919418 -20.076530 14.653095 17.520412 252.382202
[R_mid_tent01]
39 23.228794 24.509907 226.238495 -167.426971 -24.470919 31.939054 228.744751
40 23.228794 24.509907 226.238495 -166.161240 -21.154064 27.827936 228.744751
[spine01]
39 -0.361383 -0.195265 0.000000 0.001955 0.001299 22.767790 0.410763
40 -0.361383 -0.195265 0.000000 0.001951 0.001306 22.409824 0.410763
[Bip01_Neck]
39 165.484543 71.581718 0.000119 176.643677 -1.657967 43.431911 180.302734
40 165.484543 71.581718 0.000119 176.643677 -1.657967 43.431911 180.302734
[L_humerus]
39 -13.983130 -135.272980 -120.471481 -5.515517 68.782822 84.529861 181.680161
40 -13.983130 -135.272980 -120.471481 -5.485051 68.847649 84.563339 181.680161
[R_humerus]
39 -13.983309 -135.273102 125.287651 27.846910 -69.803192 67.803535 184.909012
40 -13.983309 -135.273102 125.287651 27.876904 -69.868912 67.776520 184.909012
[weapon_bone]
39 235.964890 -300.705902 0.000000 0.000000 -89.951546 -128.212341 382.234833
40 235.964890 -300.705902 0.000000 0.000000 -89.951546 -128.212341 382.234833
[Bip01_Head]
39 213.328659 186.041931 7.559090 5.200446 6.151311 -43.834991 283.156952
40 213.328766 186.041901 7.559147 5.200446 6.151311 -43.834991 283.157013
[eye_left_bone]
39 -24.626970 125.451866 -64.772606 0.000000 -90.000000 -99.840431 143.318359
40 -24.626970 125.451866 -64.772606 0.000000 -90.000000 -99.840431 143.318359
[eye_right_bone]
39 -24.626970 125.451866 64.327362 0.000000 -89.965736 80.156380 143.117676
40 -24.626970 125.451866 64.327362 0.000000 -89.965736 80.156380 143.117676
[L_forearm]
39 322.776093 0.000000 -0.000119 0.000397 -0.002313 -109.453300 322.776093
40 322.776093 0.000000 -0.000119 0.000396 -0.002314 -109.426048 322.776093
[L_front_hand]
39 241.149185 -0.042021 -3.300071 -178.667953 -1.835447 -27.422350 241.171753
40 241.149185 -0.042021 -3.300071 -178.667953 -1.835447 -27.422350 241.171753
[L_weapon_bone]
39 156.183838 0.000000 0.000000 0.000014 0.000007 0.000001 156.183838
40 156.183838 0.000000 0.000000 0.000014 0.000007 0.000001 156.183838
[L_front_hand01_01]
39 86.095154 20.947098 -0.655860 -0.366594 -0.477154 75.385574 88.609184
40 86.095154 20.947098 -0.655860 -0.366594 -0.477154 75.385574 88.609184
[L_front_hand02_01]
39 86.935165 -11.437475 24.513514 154.399796 -59.883835 -61.369587 91.046425
40 86.935165 -11.437475 24.513514 154.399796 -59.883835 -61.369587 91.046425
[L_front_hand03_01]
39 86.637497 -14.123976 -20.424902 -153.913849 58.118130 -62.702866 90.126129
40 86.637497 -14.123976 -20.424902 -153.913849 58.118122 -62.702866 90.126129
[L_front_hand01_02]
39 71.020905 -0.000179 0.000030 0.000334 -0.002323 -106.354980 71.020905
40 71.020905 -0.000179 0.000030 0.000334 -0.002323 -106.367340 71.020905
[L_front_hand02_02]
39 71.020927 -0.000119 0.000060 0.000334 -0.002323 -106.354980 71.020927
40 71.020927 -0.000119 0.000060 0.000334 -0.002323 -106.367340 71.020927
[L_front_hand03_02]
39 71.020905 -0.000060 0.000060 0.000334 -0.002323 -106.354980 71.020905
40 71.020905 -0.000060 0.000060 0.000334 -0.002323 -106.367340 71.020905
[R_forearm]
39 322.776428 -0.000060 0.000030 0.202082 0.065222 -108.099472 322.776428
40 322.776428 -0.000060 0.000030 0.202099 0.065168 -108.068924 322.776428
[R_front_hand]
39 238.847015 -0.006795 2.210259 -2.635298 -10.645461 -26.312506 238.857239
40 238.847015 -0.006795 2.210259 -2.635298 -10.645461 -26.312506 238.857239
[R_weapon_bone]
39 155.664093 0.002503 -0.000030 0.003487 0.001180 -90.988930 155.664078
40 155.664093 0.002503 -0.000030 0.003487 0.001180 -90.988930 155.664078
[R_front_hand01_01]
39 87.624611 14.231146 22.918642 -154.633499 -59.950619 61.746044 91.683487
40 87.624611 14.231146 22.918642 -154.633499 -59.950619 61.746044 91.683487
[R_front_hand02_01]
39 89.356956 14.367283 -19.491137 154.602661 58.302849 63.744389 92.579636
40 89.356956 14.367283 -19.491137 154.602661 58.302849 63.744389 92.579636
[R_front_hand03_01]
39 87.286232 -22.307278 -0.143439 0.162155 -0.423168 -75.767921 90.091743
40 87.286232 -22.307278 -0.143439 0.162155 -0.423168 -75.767921 90.091743
[R_front_hand01_02]
39 71.020905 0.000060 0.000119 0.002323 -0.000334 106.381714 71.020905
40 71.020905 0.000060 0.000119 0.002323 -0.000334 106.381714 71.020905
[R_front_hand02_02]
39 71.020844 -0.000030 -0.000119 0.002323 -0.000334 106.381714 71.020836
40 71.020844 -0.000030 -0.000119 0.002323 -0.000334 106.381714 71.020836
[R_front_hand03_02]
39 71.020905 0.000000 0.000030 0.002323 -0.000334 106.381714 71.020905
40 71.020905 0.000000 0.000030 0.002323 -0.000334 106.381714 71.020905
[null_rope01_connect]
39 328.732483 0.000000 -0.000238 -149.575348 -62.971558 -131.224884 328.732483
40 328.732483 0.000000 -0.000238 -152.496811 -63.909386 -125.156334 328.732483
[Rope1_Seg01]
39 -0.000036 0.000002 0.000145 49.600296 -7.221475 -120.845093 0.000149
40 -0.000037 0.000001 0.000149 50.580059 -1.329038 -121.179497 0.000153
[Rope1_Seg02]
39 139.999863 -0.000179 0.000000 -9.433186 6.191708 0.946450 139.999863
40 139.999863 -0.000179 0.000000 -11.947302 5.387154 2.160818 139.999863
[Rope1_Seg03]
39 139.999924 0.000060 -0.000060 -11.358140 6.447703 1.112067 139.999924
40 139.999924 0.000060 -0.000060 -12.707260 5.097934 2.661820 139.999924
[Rope1_Seg04]
39 139.999924 -0.000060 -0.000119 -15.430902 6.325205 4.043751 139.999924
40 139.999924 -0.000060 -0.000119 -14.769058 4.829792 4.853008 139.999924
[Rope1_Seg05]
39 139.999832 0.000119 -0.000060 -9.181778 0.697173 7.289093 139.999832
40 139.999832 0.000119 -0.000060 -7.727638 -0.161066 6.772813 139.999832
[Rope1_Seg06]
39 139.999954 0.000119 -0.000060 -3.920972 -0.069527 3.993459 139.999954
40 139.999954 0.000119 -0.000060 -2.590103 -0.662626 3.232649 139.999954
[Rope1_Seg07]
39 139.999985 0.000060 0.000000 -2.270179 -0.047534 2.510796 139.999985
40 139.999985 0.000060 0.000000 -1.521364 -0.270185 1.879929 139.999985
[Rope1_Seg09]
39 121.602913 0.000119 -0.000089 -89.793175 -1.359789 0.847147 121.602913
40 121.602913 0.000119 -0.000089 -89.793175 -1.359789 0.847147 121.602913
[L_mid_hand01]
39 103.859421 1.038730 8.195221 130.544373 -67.584534 -38.866943 104.187431
40 103.859421 1.038730 8.195221 130.544373 -67.584534 -38.866943 104.187431
[L_mid_hand02]
39 105.572853 -4.139662 -10.864139 -168.923172 43.409309 -73.498886 106.211075
40 105.572853 -4.139662 -10.864139 -168.923172 43.409309 -73.498886 106.211075
[L_mid_hand03]
39 104.641464 17.579376 -3.913581 -6.012627 17.808174 74.893669 106.179977
40 104.641464 17.579376 -3.913581 -6.012627 17.808174 74.893669 106.179977
[null_rope02_connect]
39 328.732849 0.000179 -0.000119 -133.755081 63.815033 -22.895182 328.732849
40 328.732849 0.000179 -0.000119 -137.186111 66.067955 -28.778685 328.732849
[Rope2_Seg01]
39 0.000074 0.000008 0.000000 22.359453 11.467081 -42.315121 0.000075
40 0.000075 0.000004 0.000000 36.023392 10.093618 -44.490540 0.000075
[Rope2_Seg02]
39 139.999741 -0.000060 -0.000119 43.897572 -5.713117 -7.476162 139.999756
40 139.999741 -0.000060 -0.000119 31.931507 -10.426880 -6.185758 139.999756
[Rope2_Seg03]
39 140.000107 0.000030 0.000000 6.776183 -7.812298 0.750084 140.000107
40 140.000107 0.000030 0.000000 2.056303 -8.383571 2.559182 140.000107
[Rope2_Seg04]
39 139.999802 0.000000 -0.000060 12.792646 -9.442263 -3.036695 139.999802
40 139.999802 0.000000 -0.000060 8.587565 -9.707481 -1.988225 139.999802
[Rope2_Seg05]
39 139.999985 -0.000060 0.000119 11.948482 -9.646984 -4.653691 139.999985
40 139.999985 -0.000060 0.000119 9.399268 -9.258707 -4.630151 139.999985
[Rope2_Seg06]
39 139.999893 -0.000030 -0.000119 3.579256 -5.555453 -0.855690 139.999893
40 139.999893 -0.000030 -0.000119 2.922054 -4.873586 -1.147738 139.999893
[Rope2_Seg07]
39 139.999893 0.000060 -0.000060 1.777346 -3.630036 -0.287247 139.999893
40 139.999893 0.000060 -0.000060 1.353444 -2.971203 -0.424306 139.999893
[Rope2_Seg09]
39 121.338966 0.000089 -0.000060 33.793236 -1.359788 -0.847141 121.338966
40 121.338966 0.000089 -0.000060 33.793236 -1.359788 -0.847141 121.338966
[R_mid_hand01]
39 104.680779 11.144459 -10.335981 -16.212063 45.237247 70.462852 105.778534
40 104.680779 11.144459 -10.335981 -16.212063 45.237247 70.462852 105.778534
[R_mid_hand02]
39 104.070427 2.443552 8.231699 49.067368 -67.749771 39.286453 104.424065
40 104.070427 2.443552 8.231699 49.067368 -67.749771 39.286453 104.424065
[R_mid_hand03]
39 106.028137 -11.221827 -5.996406 -177.101105 15.551026 -76.585571 106.788818
40 106.028137 -11.221827 -5.996406 -177.101105 15.551026 -76.585571 106.788818
[spine02]
39 129.756927 0.001550 0.000119 0.361470 -4.044672 -12.954954 129.756927
40 129.756927 0.001550 0.000119 0.360765 -4.044735 -12.935005 129.756927
[spine03]
39 78.613899 0.081642 -4.898697 1.897722 3.830681 16.509747 78.766426
40 78.613899 0.081638 -4.898689 1.897108 3.830984 16.491398 78.766418
[pelvis]
39 169.435242 0.051022 0.000000 -0.060567 -0.180191 14.152716 169.435257
40 169.435242 0.051022 0.000000 -0.060489 -0.180217 14.102880 169.435257
[null_rope03_connect]
39 -1.257226 -2.466202 137.391083 0.000000 -89.449989 63.660736 137.418976
40 -1.257226 -2.466202 137.391083 159.189102 -89.403244 -96.955528 137.418976
[null_rope04_connect]
39 -1.259640 -2.480268 -137.844437 0.000000 -89.449989 63.660736 137.872513
40 -1.259640 -2.480268 -137.844437 159.189102 -89.403244 -96.955528 137.872513
[Rope3_Seg01]
39 -0.000001 -0.000584 -0.000153 -132.714249 17.137669 -83.024651 0.000603
40 -0.000000 -0.000597 -0.000153 -133.508743 20.760784 -83.561096 0.000616
[Rope3_Seg02]
39 139.999924 -0.000119 0.000060 0.055839 -1.802865 -2.185618 139.999924
40 139.999924 -0.000119 0.000060 0.084006 -1.480775 -2.160998 139.999924
[Rope3_Seg03]
39 139.999924 -0.000119 0.000119 0.130340 -2.028185 -3.354831 139.999924
40 139.999924 -0.000119 0.000119 0.134196 -1.770912 -3.131800 139.999924
[Rope3_Seg04]
39 139.999924 0.000119 0.000000 0.067100 -2.188402 -3.942815 139.999924
40 139.999924 0.000119 0.000000 0.093408 -2.177551 -4.304645 139.999924
[Rope3_Seg05]
39 139.999924 -0.000238 0.000060 0.104436 0.431818 6.236764 139.999924
40 139.999924 -0.000238 0.000060 0.094068 1.017178 5.385611 139.999924
[Rope3_Seg06]
39 139.999893 -0.000119 -0.000060 0.115400 0.926270 6.708058 139.999893
40 139.999893 -0.000119 -0.000060 0.188704 1.640576 6.482395 139.999893
[Rope3_Seg07]
39 139.999771 0.000060 -0.000119 0.187998 0.283159 3.326119 139.999771
40 139.999771 0.000060 -0.000119 0.265788 0.642836 2.985801 139.999771
[Rope3_Seg08]
39 139.999985 -0.000060 0.000000 0.277397 0.194267 2.168485 139.999985
40 139.999985 -0.000060 0.000000 0.340136 0.421342 1.921955 139.999985
[Rope3_Seg09]
39 90.185997 -0.000179 -0.000060 89.793228 -1.359877 -0.847183 90.185997
40 90.185997 -0.000179 -0.000060 89.793228 -1.359877 -0.847183 90.185997
[R_rear_hand01]
39 103.366196 -6.073594 -10.757982 -177.714203 24.565960 -73.910950 104.101845
40 103.366196 -6.073594 -10.757982 -177.714203 24.565960 -73.910950 104.101845
[R_rear_hand02]
39 100.509819 12.039542 -7.992327 -12.874829 36.868488 72.167213 101.543350
40 100.509819 12.039542 -7.992327 -12.874834 36.868492 72.167213 101.543350
[R_rear_hand03]
39 101.539970 5.215704 5.435467 71.484581 -71.816628 21.513813 101.819031
40 101.539970 5.215704 5.435467 71.484581 -71.816628 21.513813 101.819031
[Rope4_Seg01]
39 0.000000 -0.001162 -0.000298 45.717571 24.922970 -113.639732 0.001199
40 0.000000 -0.001191 -0.000301 45.416134 27.759661 -114.018593 0.001229
[Rope4_Seg02]
39 139.999985 0.000060 0.000119 0.185118 1.573890 3.986654 139.999985
40 139.999985 0.000060 0.000119 0.156764 1.787499 4.229195 139.999985
[Rope4_Seg03]
39 139.999924 0.000000 -0.000238 0.005809 2.358862 5.970233 139.999924
40 139.999924 0.000000 -0.000238 -0.069214 2.625733 6.196715 139.999924
[Rope4_Seg04]
39 139.999985 0.000000 0.000119 -2.211494 6.078405 20.472914 139.999985
40 139.999985 0.000000 0.000119 -2.395241 7.007836 20.156864 139.999985
[Rope4_Seg05]
39 139.999802 -0.000060 -0.000119 2.388758 1.497816 -7.774981 139.999802
40 139.999802 -0.000060 -0.000119 1.298538 1.239784 -3.155356 139.999802
[Rope4_Seg06]
39 139.999924 0.000000 0.000060 3.560079 -2.504439 -18.221581 139.999924
40 139.999924 0.000000 0.000060 4.787264 -4.043903 -19.908833 139.999924
[Rope4_Seg07]
39 139.999802 0.000000 0.000000 0.548496 -0.764131 -5.518754 139.999802
40 139.999802 0.000000 0.000000 0.654866 -1.318381 -5.552608 139.999802
[Rope4_Seg08]
39 139.999924 0.000000 0.000119 -1.337102 -0.449430 -3.040229 139.999924
40 139.999924 0.000000 0.000119 -1.299279 -0.755263 -3.046835 139.999924
[Rope4_Seg09]
39 90.185791 0.000060 0.000060 -135.617828 2.228885 0.850567 90.185791
40 90.185791 0.000060 0.000060 -135.617828 2.228885 0.850567 90.185791
[L_rear_hand01]
39 101.696655 -8.392275 -7.654577 -12.874829 -36.868488 107.832764 102.329041
40 101.696655 -8.392275 -7.654577 -12.874829 -36.868488 107.832764 102.329041
[L_rear_hand02]
39 102.726799 -1.568258 5.773216 71.484581 71.816628 158.486160 102.900848
40 102.726799 -1.568258 5.773216 71.484619 71.816643 158.486160 102.900848
[L_rear_hand03]
39 104.552910 9.721220 -10.420293 -177.714203 -24.565960 -106.089035 105.519653
40 104.552910 9.721220 -10.420293 -177.714203 -24.565960 -106.089035 105.519653
